<?xml version="1.0" encoding="iso-8859-1"?>
<!-- Generator: Adobe Illustrator 19.0.0, SVG Export Plug-In . SVG Version: 6.00 Build 0)  -->
<svg version="1.1" id="Layer_1" xmlns="http://www.w3.org/2000/svg" xmlns:xlink="http://www.w3.org/1999/xlink" x="0px" y="0px"
	 viewBox="0 0 512.002 512.002" style="enable-background:new 0 0 512.002 512.002;" xml:space="preserve">
<path style="fill:#DC90CC;" d="M30.068,234.53l87.571,79.937c78.371,71.538,198.352,71.538,276.723,0l87.571-79.937
	c-19.111-6.745-57.196-37.646-92.042-68.355c-40.039-35.286-101.892-27.777-132.399,16.012L256,184.33l-1.493-2.143
	c-30.506-43.79-92.359-51.298-132.399-16.012C87.263,196.884,49.179,227.785,30.068,234.53z"/>
<g>
	<path style="fill:#C0369E;" d="M389.89,166.175c-40.039-35.286-101.892-27.778-132.399,16.012L256,184.33v183.791
		c49.588,0,99.176-17.884,138.361-53.653l87.571-79.937C462.821,227.785,424.737,196.884,389.89,166.175z"/>
	<path style="fill:#C0369E;" d="M256,383.883c-55.261,0-108.173-20.518-148.989-57.774L0,228.429l24.821-8.761
		c7.943-2.804,29.788-15.017,86.867-65.319c22.435-19.771,52.331-29.057,82.037-25.475c23.757,2.864,45.688,13.753,62.276,30.549
		c16.588-16.798,38.517-27.685,62.276-30.549c29.699-3.581,59.602,5.704,82.037,25.475c57.078,50.302,78.925,62.515,86.867,65.319
		l24.821,8.761l-107.011,97.681C364.173,363.365,311.261,383.883,256,383.883z M57.179,237.937l71.087,64.889
		c34.992,31.94,80.355,49.53,127.734,49.53s92.742-17.592,127.734-49.532l71.087-64.889c-14.561-9.434-37.838-26.877-75.352-59.936
		c-15.702-13.836-36.63-20.335-57.42-17.829c-20.819,2.51-39.637,13.818-51.623,31.026L256,211.905l-14.425-20.706
		c-11.987-17.208-30.803-28.515-51.624-31.026c-20.792-2.503-41.718,3.992-57.42,17.829
		C95.017,211.061,71.74,228.503,57.179,237.937z"/>
</g>
<path style="fill:#8B2975;" d="M487.179,219.667c-7.943-2.804-29.788-15.017-86.867-65.319
	c-22.435-19.77-52.336-29.055-82.037-25.475c-23.759,2.864-45.688,13.751-62.276,30.549v52.482l14.426-20.706
	c11.986-17.208,30.803-28.515,51.623-31.026c20.789-2.507,41.718,3.992,57.42,17.829c37.514,33.06,60.791,50.502,75.352,59.936
	l-71.087,64.889c-34.991,31.941-80.354,49.532-127.733,49.532v31.526c55.261,0,108.173-20.518,148.989-57.774L512,228.429
	L487.179,219.667z"/>
<path style="fill:#C0369E;" d="M256,295.923l-10.431-9.207c-34.015-30.024-81.73-27.403-127.873-24.874
	c-38.077,2.09-74.046,4.064-97.577-15.083l19.898-24.452c14.077,11.452,44.133,9.804,75.953,8.058
	c43.88-2.408,97.652-5.359,140.031,24.478c42.38-29.837,96.155-26.884,140.031-24.478c31.819,1.743,61.876,3.394,75.954-8.058
	l19.898,24.452c-23.532,19.147-59.499,17.172-97.578,15.083c-46.143-2.528-93.857-5.15-127.872,24.874L256,295.923z"/>
<path style="fill:#8B2975;" d="M256,295.923l10.431-9.207c34.015-30.024,81.73-27.402,127.872-24.874
	c38.079,2.088,74.046,4.063,97.578-15.083l-19.898-24.452c-14.077,11.452-44.134,9.803-75.954,8.058
	c-43.875-2.406-97.651-5.359-140.031,24.478v41.08H256z"/>
<g>
</g>
<g>
</g>
<g>
</g>
<g>
</g>
<g>
</g>
<g>
</g>
<g>
</g>
<g>
</g>
<g>
</g>
<g>
</g>
<g>
</g>
<g>
</g>
<g>
</g>
<g>
</g>
<g>
</g>
</svg>
